<svg xmlns="http://www.w3.org/2000/svg" viewBox="0 0 400 260" width="400" height="260">
  <!-- Browser chrome -->
  <rect width="400" height="260" rx="8" fill="#f8f9fa" stroke="#e0e0e0"/>
  <rect width="400" height="28" rx="8" fill="#fff" stroke="#e0e0e0"/>
  <circle cx="16" cy="14" r="5" fill="#ff5f57"/>
  <circle cx="32" cy="14" r="5" fill="#febc2e"/>
  <circle cx="48" cy="14" r="5" fill="#28c840"/>
  <!-- Header -->
  <rect y="28" width="400" height="30" fill="#fff"/>
  <text x="16" y="48" font-family="sans-serif" font-size="13" font-weight="bold" fill="#1a1a1a">Memory Match</text>
  <text x="280" y="48" font-family="sans-serif" font-size="10" fill="#888">Moves: 12 | Pairs: 3/8</text>
  <!-- Card grid 4x4 -->
  <!-- Row 1 -->
  <rect x="24" y="68" width="76" height="76" rx="8" fill="#e0e7ef" stroke="#b0bec5"/>
  <text x="62" y="112" font-family="sans-serif" font-size="9" fill="#78909c" text-anchor="middle">?</text>
  <rect x="108" y="68" width="76" height="76" rx="8" fill="#e0e7ef" stroke="#b0bec5"/>
  <text x="146" y="112" font-family="sans-serif" font-size="9" fill="#78909c" text-anchor="middle">?</text>
  <rect x="192" y="68" width="76" height="76" rx="8" fill="#fff" stroke="#4caf50" stroke-width="2"/>
  <text x="230" y="116" font-family="sans-serif" font-size="28" text-anchor="middle">&#9733;</text>
  <rect x="276" y="68" width="76" height="76" rx="8" fill="#e0e7ef" stroke="#b0bec5"/>
  <text x="314" y="112" font-family="sans-serif" font-size="9" fill="#78909c" text-anchor="middle">?</text>
  <!-- Row 2 -->
  <rect x="24" y="152" width="76" height="76" rx="8" fill="#fff" stroke="#4caf50" stroke-width="2"/>
  <text x="62" y="200" font-family="sans-serif" font-size="28" text-anchor="middle">&#9733;</text>
  <rect x="108" y="152" width="76" height="76" rx="8" fill="#e8f5e9" stroke="#a5d6a7" stroke-dasharray="4"/>
  <text x="146" y="198" font-family="sans-serif" font-size="24" text-anchor="middle" opacity="0.4">&#9829;</text>
  <rect x="192" y="152" width="76" height="76" rx="8" fill="#e0e7ef" stroke="#b0bec5"/>
  <text x="230" y="196" font-family="sans-serif" font-size="9" fill="#78909c" text-anchor="middle">?</text>
  <rect x="276" y="152" width="76" height="76" rx="8" fill="#e8f5e9" stroke="#a5d6a7" stroke-dasharray="4"/>
  <text x="314" y="198" font-family="sans-serif" font-size="24" text-anchor="middle" opacity="0.4">&#9827;</text>
  <!-- Match indicator -->
  <text x="200" y="250" font-family="sans-serif" font-size="10" fill="#4caf50" text-anchor="middle">Match found!</text>
</svg>
