<svg xmlns="http://www.w3.org/2000/svg" viewBox="0 0 400 260" width="400" height="260">
  <!-- Browser chrome -->
  <rect width="400" height="260" rx="8" fill="#f8f9fa" stroke="#e0e0e0"/>
  <rect width="400" height="28" rx="8" fill="#fff" stroke="#e0e0e0"/>
  <circle cx="16" cy="14" r="5" fill="#ff5f57"/>
  <circle cx="32" cy="14" r="5" fill="#febc2e"/>
  <circle cx="48" cy="14" r="5" fill="#28c840"/>
  <!-- Header -->
  <rect y="28" width="400" height="30" fill="#c62828"/>
  <text x="16" y="48" font-family="sans-serif" font-size="13" font-weight="bold" fill="#fff">Secret Santa</text>
  <text x="350" y="48" font-family="sans-serif" font-size="10" fill="#ffcdd2">4 members</text>
  <!-- Group card -->
  <rect x="16" y="68" width="368" height="40" rx="6" fill="#fff" stroke="#e0e0e0"/>
  <text x="24" y="84" font-family="sans-serif" font-size="10" font-weight="bold" fill="#333">Group: Office Party 2026</text>
  <text x="24" y="100" font-family="sans-serif" font-size="9" fill="#888">Join code: XMAS-402</text>
  <rect x="320" y="78" width="52" height="20" rx="4" fill="#c62828"/>
  <text x="346" y="92" font-family="sans-serif" font-size="8" fill="#fff" text-anchor="middle">Draw!</text>
  <!-- Members list -->
  <rect x="16" y="118" width="368" height="28" rx="4" fill="#fff" stroke="#e0e0e0"/>
  <circle cx="34" cy="132" r="8" fill="#d0dbe5"/>
  <text x="48" y="136" font-family="sans-serif" font-size="10" fill="#333">Alice</text>
  <text x="340" y="136" font-family="sans-serif" font-size="9" fill="#4caf50">Joined</text>
  <rect x="16" y="150" width="368" height="28" rx="4" fill="#fff" stroke="#e0e0e0"/>
  <circle cx="34" cy="164" r="8" fill="#c8e6c9"/>
  <text x="48" y="168" font-family="sans-serif" font-size="10" fill="#333">Bob</text>
  <text x="340" y="168" font-family="sans-serif" font-size="9" fill="#4caf50">Joined</text>
  <rect x="16" y="182" width="368" height="28" rx="4" fill="#fff" stroke="#e0e0e0"/>
  <circle cx="34" cy="196" r="8" fill="#ffe0b2"/>
  <text x="48" y="200" font-family="sans-serif" font-size="10" fill="#333">Charlie</text>
  <text x="340" y="200" font-family="sans-serif" font-size="9" fill="#4caf50">Joined</text>
  <!-- Reveal card -->
  <rect x="60" y="218" width="280" height="34" rx="8" fill="#fff3e0" stroke="#ffb74d"/>
  <text x="200" y="239" font-family="sans-serif" font-size="11" fill="#e65100" text-anchor="middle">You got: ??? (click to reveal)</text>
</svg>
